<?xml version="1.0" encoding="UTF-8"?><svg id="Layer_2" xmlns="http://www.w3.org/2000/svg" viewBox="0 0 209.58 240.59"><g id="Layer_1-2"><g><path d="M146.14,0c.57,.24,1.13,.48,1.7,.7,5.19,2,8.09,7.05,7.2,12.58-.83,5.16-5.45,9.17-10.9,9.24-7.05,.09-14.1,.03-21.14,.03-27.96,0-55.91,0-83.87,0-10.37,0-16.56,6.15-16.56,16.45,0,54.18,0,108.36,0,162.55,0,10.3,6.2,16.47,16.55,16.47,34.77,0,69.54-.01,104.31,.01,8.2,0,13.69,7.32,11.2,14.81-1.5,4.53-5.59,7.61-10.44,7.71-4.31,.08-8.61,.02-12.92,.02-31.09,0-62.18,.03-93.27-.01-18.51-.02-33.62-12.42-37.26-30.56-.53-2.66-.7-5.44-.7-8.16C0,147.5,0,93.16,0,38.82,0,18.76,12.73,3.74,32.52,.37c.29-.05,.55-.24,.83-.37,37.6,0,75.19,0,112.79,0Z"/><path d="M170.93,131.56h-3.18c-28.27,0-56.53,0-84.8,0-5.83,0-10.22-3.22-11.58-8.4-1.84-6.98,3.22-13.86,10.44-14.13,2.35-.09,4.7-.02,7.05-.02,26.31,0,52.62,0,78.93,0h3.13c-.88-.94-1.41-1.53-1.97-2.1-10.68-10.69-21.41-21.33-32.04-32.07-6.47-6.53-3.74-16.97,4.96-19.13,4.1-1.02,7.76,.04,10.78,3.04,3.73,3.69,7.43,7.41,11.14,11.12,13.79,13.78,27.57,27.57,41.36,41.35,5.95,5.95,5.93,12.21-.06,18.19-17.22,17.22-34.46,34.42-51.64,51.66-3.16,3.17-6.76,4.8-11.22,3.79-4.23-.96-7.1-3.58-8.33-7.76-1.29-4.36-.18-8.2,3.02-11.41,10.62-10.64,21.26-21.26,31.88-31.89,.59-.59,1.16-1.21,2.14-2.24Z"/></g></g></svg>