<svg xmlns="http://www.w3.org/2000/svg" viewBox="0 0 858.47 832.91"><defs><style>.cls-1{fill:#fff;}</style></defs><g id="Layer_2" data-name="Layer 2"><g id="Layer_1-2" data-name="Layer 1"><path d="M858.47,809.83l-16.9,23.08c-91.41-67.87-128.48-161.22-130-272.86-1.5,2.35-2.36,3.63-3.14,5-56.81,97.07-140,158.85-249.56,183.71-132.15,30-273.32-16.67-363.19-118.5C48.83,577.08,18.53,515.71,6,446c-29.17-162.74,49-326.1,201.18-404.23C262.49,13.4,321.37-.86,383.5,0,556,2.55,703.63,118.11,746.38,281.43c13.69,52.29,15.18,105.05,6,158.3-8.57,49.79-13.73,99.89-10.3,150.52,4.08,60.28,21.69,115.75,59.07,164a283.57,283.57,0,0,0,52.89,52C855.38,807.33,856.65,808.38,858.47,809.83ZM290.86,271c-.24-57.93-46.78-104.34-104.15-103.86A103.67,103.67,0,0,0,83.64,271.59c.2,57.08,47.07,103.15,104.65,102.86C244.64,374.16,291.1,327.31,290.86,271Zm406.58,79.56c-.11-57.22-46.36-103.59-103.39-103.68A103.87,103.87,0,0,0,490.24,350.67c.05,57.26,46.72,103.81,103.92,103.64A103.71,103.71,0,0,0,697.44,350.56ZM524.16,165.74A103.93,103.93,0,0,0,420.79,62c-57.14-.22-103.79,46.36-103.9,103.73-.1,57.13,46.63,103.81,103.86,103.74C477.64,269.4,524.14,222.74,524.16,165.74ZM224.84,628.43A103.53,103.53,0,1,0,121.5,525,103.13,103.13,0,0,0,224.84,628.43Zm145.29-54.72A103.54,103.54,0,1,0,473.93,470.2,103.32,103.32,0,0,0,370.13,573.71Zm-59-195.33a67.59,67.59,0,1,0,135.18.76c.16-37.69-30-68.25-67.47-68.28A67.62,67.62,0,0,0,311.15,378.38Z"/><path class="cls-1" d="M290.86,271c.24,56.31-46.22,103.16-102.57,103.45-57.58.29-104.45-45.78-104.65-102.86A103.67,103.67,0,0,1,186.71,167.14C244.08,166.66,290.62,213.07,290.86,271Z"/><path class="cls-1" d="M697.44,350.56A103.71,103.71,0,0,1,594.16,454.31c-57.2.17-103.87-46.38-103.92-103.64A103.87,103.87,0,0,1,594.05,246.88C651.08,247,697.33,293.34,697.44,350.56Z"/><path class="cls-1" d="M524.16,165.74c0,57-46.52,103.66-103.41,103.72-57.23.07-104-46.61-103.86-103.74C317,108.35,363.65,61.77,420.79,62A103.93,103.93,0,0,1,524.16,165.74Z"/><path class="cls-1" d="M224.84,628.43A103.53,103.53,0,1,1,328.51,525.36,103.2,103.2,0,0,1,224.84,628.43Z"/><path class="cls-1" d="M370.13,573.71A103.54,103.54,0,1,1,473.37,677.29,103.26,103.26,0,0,1,370.13,573.71Z"/><path class="cls-1" d="M311.15,378.38a67.62,67.62,0,0,1,67.71-67.52c37.43,0,67.63,30.59,67.47,68.28a67.59,67.59,0,1,1-135.18-.76Z"/></g></g></svg>